<?xml version="1.0" encoding="UTF-8" standalone="no"?>
<svg
   xmlns:ooo="http://xml.openoffice.org/svg/export"
   xmlns:dc="http://purl.org/dc/elements/1.1/"
   xmlns:cc="http://creativecommons.org/ns#"
   xmlns:rdf="http://www.w3.org/1999/02/22-rdf-syntax-ns#"
   xmlns:svg="http://www.w3.org/2000/svg"
   xmlns="http://www.w3.org/2000/svg"
   xmlns:sodipodi="http://sodipodi.sourceforge.net/DTD/sodipodi-0.dtd"
   xmlns:inkscape="http://www.inkscape.org/namespaces/inkscape"
   version="1.2"
   width="512"
   height="512"
   viewBox="0 0 13546.666 13546.667"
   preserveAspectRatio="xMidYMid"
   fill-rule="evenodd"
   stroke-width="28.222"
   stroke-linejoin="round"
   xml:space="preserve"
   id="svg198"
   sodipodi:docname="bug.svg"
   inkscape:version="1.0.1 (3bc2e813f5, 2020-09-07)"><metadata
   id="metadata202"><rdf:RDF><cc:Work
       rdf:about=""><dc:format>image/svg+xml</dc:format><dc:type
         rdf:resource="http://purl.org/dc/dcmitype/StillImage" /><dc:title></dc:title></cc:Work></rdf:RDF></metadata><sodipodi:namedview
   pagecolor="#ffffff"
   bordercolor="#666666"
   borderopacity="1"
   objecttolerance="10"
   gridtolerance="10"
   guidetolerance="10"
   inkscape:pageopacity="0"
   inkscape:pageshadow="2"
   inkscape:window-width="1260"
   inkscape:window-height="1114"
   id="namedview200"
   showgrid="false"
   units="px"
   inkscape:zoom="0.55945567"
   inkscape:cx="396.85039"
   inkscape:cy="561.25984"
   inkscape:window-x="475"
   inkscape:window-y="308"
   inkscape:window-maximized="0"
   inkscape:current-layer="svg198"
   inkscape:document-rotation="0" />
 <defs
   class="ClipPathGroup"
   id="defs8">
  <clipPath
   id="presentation_clip_path"
   clipPathUnits="userSpaceOnUse">
   <rect
   x="0"
   y="0"
   width="21000"
   height="29700"
   id="rect2" />
  </clipPath>
  <clipPath
   id="presentation_clip_path_shrink"
   clipPathUnits="userSpaceOnUse">
   <rect
   x="21"
   y="29"
   width="20958"
   height="29641"
   id="rect5" />
  </clipPath>
 </defs>
 <defs
   class="TextShapeIndex"
   id="defs12">
  <g
   ooo:slide="id1"
   ooo:id-list="id3 id4 id5 id6 id7 id8 id9 id10 id11 id12 id13 id14 id15 id16 id17 id18 id19 id20 id21"
   id="g10" />
 </defs>
 <defs
   class="EmbeddedBulletChars"
   id="defs44">
  <g
   id="bullet-char-template-57356"
   transform="matrix(4.8828125e-4,0,0,-4.8828125e-4,0,0)">
   <path
   d="M 580,1141 1163,571 580,0 -4,571 Z"
   id="path14" />
  </g>
  <g
   id="bullet-char-template-57354"
   transform="matrix(4.8828125e-4,0,0,-4.8828125e-4,0,0)">
   <path
   d="M 8,1128 H 1137 V 0 H 8 Z"
   id="path17" />
  </g>
  <g
   id="bullet-char-template-10146"
   transform="matrix(4.8828125e-4,0,0,-4.8828125e-4,0,0)">
   <path
   d="M 174,0 602,739 174,1481 1456,739 Z M 1358,739 309,1346 659,739 Z"
   id="path20" />
  </g>
  <g
   id="bullet-char-template-10132"
   transform="matrix(4.8828125e-4,0,0,-4.8828125e-4,0,0)">
   <path
   d="M 2015,739 1276,0 H 717 l 543,543 H 174 v 393 h 1086 l -543,545 h 557 z"
   id="path23" />
  </g>
  <g
   id="bullet-char-template-10007"
   transform="matrix(4.8828125e-4,0,0,-4.8828125e-4,0,0)">
   <path
   d="m 0,-2 c -7,16 -16,29 -25,39 l 381,530 c -94,256 -141,385 -141,387 0,25 13,38 40,38 9,0 21,-2 34,-5 21,4 42,12 65,25 l 27,-13 111,-251 280,301 64,-25 24,25 c 21,-10 41,-24 62,-43 C 886,937 835,863 770,784 769,783 710,716 594,584 L 774,223 c 0,-27 -21,-55 -63,-84 l 16,-20 C 717,90 699,76 672,76 641,76 570,178 457,381 L 164,-76 c -22,-34 -53,-51 -92,-51 -42,0 -63,17 -64,51 -7,9 -10,24 -10,44 0,9 1,19 2,30 z"
   id="path26" />
  </g>
  <g
   id="bullet-char-template-10004"
   transform="matrix(4.8828125e-4,0,0,-4.8828125e-4,0,0)">
   <path
   d="M 285,-33 C 182,-33 111,30 74,156 52,228 41,333 41,471 c 0,78 14,145 41,201 34,71 87,106 158,106 53,0 88,-31 106,-94 l 23,-176 c 8,-64 28,-97 59,-98 l 735,706 c 11,11 33,17 66,17 42,0 63,-15 63,-46 V 965 c 0,-36 -10,-64 -30,-84 L 442,47 C 390,-6 338,-33 285,-33 Z"
   id="path29" />
  </g>
  <g
   id="bullet-char-template-9679"
   transform="matrix(4.8828125e-4,0,0,-4.8828125e-4,0,0)">
   <path
   d="M 813,0 C 632,0 489,54 383,161 276,268 223,411 223,592 c 0,181 53,324 160,431 106,107 249,161 430,161 179,0 323,-54 432,-161 108,-107 162,-251 162,-431 0,-180 -54,-324 -162,-431 C 1136,54 992,0 813,0 Z"
   id="path32" />
  </g>
  <g
   id="bullet-char-template-8226"
   transform="matrix(4.8828125e-4,0,0,-4.8828125e-4,0,0)">
   <path
   d="m 346,457 c -73,0 -137,26 -191,78 -54,51 -81,114 -81,188 0,73 27,136 81,188 54,52 118,78 191,78 73,0 134,-26 185,-79 51,-51 77,-114 77,-187 0,-75 -25,-137 -76,-188 -50,-52 -112,-78 -186,-78 z"
   id="path35" />
  </g>
  <g
   id="bullet-char-template-8211"
   transform="matrix(4.8828125e-4,0,0,-4.8828125e-4,0,0)">
   <path
   d="M -4,459 H 1135 V 606 H -4 Z"
   id="path38" />
  </g>
  <g
   id="bullet-char-template-61548"
   transform="matrix(4.8828125e-4,0,0,-4.8828125e-4,0,0)">
   <path
   d="m 173,740 c 0,163 58,303 173,419 116,115 255,173 419,173 163,0 302,-58 418,-173 116,-116 174,-256 174,-419 0,-163 -58,-303 -174,-418 C 1067,206 928,148 765,148 601,148 462,206 346,322 231,437 173,577 173,740 Z"
   id="path41" />
  </g>
 </defs>
 <g
   id="g49">
  <g
   id="id2"
   class="Master_Slide">
   <g
   id="bg-id2"
   class="Background" />
   <g
   id="bo-id2"
   class="BackgroundObjects" />
  </g>
 </g>
 <g
   class="SlideGroup"
   id="g196"
   transform="matrix(1.4120684,0,0,1.4555167,-3762.1093,-10199.447)">
  <g
   id="g194">
   <g
   id="container-id1">
    <g
   id="id1"
   class="Slide"
   clip-path="url(#presentation_clip_path)">
     <g
   class="Page"
   id="g190">
      <g
   class="com.sun.star.drawing.CustomShape"
   id="g56">
       <g
   id="id3">
        <rect
   class="BoundingBox"
   stroke="none"
   fill="none"
   x="3039"
   y="7371"
   width="8844"
   height="8580"
   id="rect51" />
        <path
   fill="#729fcf"
   stroke="none"
   d="m 4468,7371 h 1 c -251,0 -498,66 -715,192 -217,125 -398,306 -523,523 -126,217 -192,464 -192,715 v 5719 0 c 0,251 66,498 192,715 125,217 306,398 523,523 217,126 464,192 715,192 h 5983 v 0 c 251,0 498,-66 715,-192 217,-125 398,-306 523,-523 126,-217 192,-464 192,-715 v -5720 1 0 c 0,-251 -66,-498 -192,-715 -125,-217 -306,-398 -523,-523 -217,-126 -464,-192 -715,-192 z"
   id="path53" />
       </g>
      </g>
      <g
   class="Group"
   id="g188">
       <g
   class="com.sun.star.drawing.CustomShape"
   id="g63">
        <g
   id="id4">
         <rect
   class="BoundingBox"
   stroke="none"
   fill="none"
   x="6085"
   y="10410"
   width="2752"
   height="4252"
   id="rect58" />
         <path
   fill="#333333"
   stroke="none"
   d="m 8836,12536 c 0,373 -64,739 -184,1062 -121,323 -295,592 -504,778 -209,187 -446,285 -687,285 -242,0 -479,-98 -688,-285 -209,-186 -383,-455 -504,-778 -120,-323 -184,-689 -184,-1062 0,-374 64,-740 184,-1063 121,-323 295,-592 504,-778 209,-187 446,-285 687,-285 242,0 479,98 688,285 209,186 383,455 504,778 120,323 184,689 184,1063 z"
   id="path60" />
        </g>
       </g>
       <g
   class="com.sun.star.drawing.CustomShape"
   id="g70">
        <g
   id="id5">
         <rect
   class="BoundingBox"
   stroke="none"
   fill="none"
   x="6335"
   y="8910"
   width="2252"
   height="2252"
   id="rect65" />
         <path
   fill="#333333"
   stroke="none"
   d="m 8586,10036 c 0,197 -52,391 -151,562 -99,171 -241,313 -412,412 -171,99 -365,151 -562,151 -198,0 -392,-52 -563,-151 -171,-99 -313,-241 -412,-412 -99,-171 -151,-365 -151,-562 0,-198 52,-392 151,-563 99,-171 241,-313 412,-412 171,-99 365,-151 562,-151 198,0 392,52 563,151 171,99 313,241 412,412 99,171 151,365 151,562 z"
   id="path67" />
        </g>
       </g>
       <g
   class="Group"
   id="g128">
        <g
   class="com.sun.star.drawing.LineShape"
   id="g77">
         <g
   id="id6">
          <rect
   class="BoundingBox"
   stroke="none"
   fill="none"
   x="5979"
   y="8304"
   width="963"
   height="963"
   id="rect72" />
          <path
   fill="none"
   stroke="#333333"
   stroke-width="212"
   stroke-linejoin="round"
   stroke-linecap="round"
   d="m 6085,8410 750,750"
   id="path74" />
         </g>
        </g>
        <g
   class="com.sun.star.drawing.LineShape"
   id="g84">
         <g
   id="id7">
          <rect
   class="BoundingBox"
   stroke="none"
   fill="none"
   x="5229"
   y="8304"
   width="963"
   height="213"
   id="rect79" />
          <path
   fill="none"
   stroke="#333333"
   stroke-width="212"
   stroke-linejoin="round"
   stroke-linecap="round"
   d="M 6085,8410 H 5335"
   id="path81" />
         </g>
        </g>
        <g
   class="com.sun.star.drawing.LineShape"
   id="g91">
         <g
   id="id8">
          <rect
   class="BoundingBox"
   stroke="none"
   fill="none"
   x="4979"
   y="10804"
   width="1713"
   height="963"
   id="rect86" />
          <path
   fill="none"
   stroke="#333333"
   stroke-width="212"
   stroke-linejoin="round"
   stroke-linecap="round"
   d="M 6585,11660 5085,10910"
   id="path88" />
         </g>
        </g>
        <g
   class="com.sun.star.drawing.LineShape"
   id="g98">
         <g
   id="id9">
          <rect
   class="BoundingBox"
   stroke="none"
   fill="none"
   x="4479"
   y="10804"
   width="713"
   height="963"
   id="rect93" />
          <path
   fill="none"
   stroke="#333333"
   stroke-width="212"
   stroke-linejoin="round"
   stroke-linecap="round"
   d="m 5085,10910 -500,750"
   id="path95" />
         </g>
        </g>
        <g
   class="com.sun.star.drawing.LineShape"
   id="g105">
         <g
   id="id10">
          <rect
   class="BoundingBox"
   stroke="none"
   fill="none"
   x="4729"
   y="12304"
   width="1713"
   height="213"
   id="rect100" />
          <path
   fill="none"
   stroke="#333333"
   stroke-width="212"
   stroke-linejoin="round"
   stroke-linecap="round"
   d="M 6335,12410 H 4835"
   id="path102" />
         </g>
        </g>
        <g
   class="com.sun.star.drawing.LineShape"
   id="g112">
         <g
   id="id11">
          <rect
   class="BoundingBox"
   stroke="none"
   fill="none"
   x="4479"
   y="12304"
   width="463"
   height="1213"
   id="rect107" />
          <path
   fill="none"
   stroke="#333333"
   stroke-width="212"
   stroke-linejoin="round"
   stroke-linecap="round"
   d="m 4835,12410 -250,1000"
   id="path109" />
         </g>
        </g>
        <g
   class="com.sun.star.drawing.LineShape"
   id="g119">
         <g
   id="id12">
          <rect
   class="BoundingBox"
   stroke="none"
   fill="none"
   x="4979"
   y="13304"
   width="1463"
   height="713"
   id="rect114" />
          <path
   fill="none"
   stroke="#333333"
   stroke-width="212"
   stroke-linejoin="round"
   stroke-linecap="round"
   d="m 6335,13410 -1250,500"
   id="path116" />
         </g>
        </g>
        <g
   class="com.sun.star.drawing.LineShape"
   id="g126">
         <g
   id="id13">
          <rect
   class="BoundingBox"
   stroke="none"
   fill="none"
   x="4979"
   y="13804"
   width="213"
   height="1213"
   id="rect121" />
          <path
   fill="none"
   stroke="#333333"
   stroke-width="212"
   stroke-linejoin="round"
   stroke-linecap="round"
   d="m 5085,13910 v 1000"
   id="path123" />
         </g>
        </g>
       </g>
       <g
   class="Group"
   id="g186">
        <g
   class="com.sun.star.drawing.LineShape"
   id="g135">
         <g
   id="id14">
          <rect
   class="BoundingBox"
   stroke="none"
   fill="none"
   x="7979"
   y="8304"
   width="963"
   height="963"
   id="rect130" />
          <path
   fill="none"
   stroke="#333333"
   stroke-width="212"
   stroke-linejoin="round"
   stroke-linecap="round"
   d="m 8835,8410 -750,750"
   id="path132" />
         </g>
        </g>
        <g
   class="com.sun.star.drawing.LineShape"
   id="g142">
         <g
   id="id15">
          <rect
   class="BoundingBox"
   stroke="none"
   fill="none"
   x="8729"
   y="8304"
   width="963"
   height="213"
   id="rect137" />
          <path
   fill="none"
   stroke="#333333"
   stroke-width="212"
   stroke-linejoin="round"
   stroke-linecap="round"
   d="m 8835,8410 h 750"
   id="path139" />
         </g>
        </g>
        <g
   class="com.sun.star.drawing.LineShape"
   id="g149">
         <g
   id="id16">
          <rect
   class="BoundingBox"
   stroke="none"
   fill="none"
   x="8229"
   y="10804"
   width="1713"
   height="963"
   id="rect144" />
          <path
   fill="none"
   stroke="#333333"
   stroke-width="212"
   stroke-linejoin="round"
   stroke-linecap="round"
   d="m 8335,11660 1500,-750"
   id="path146" />
         </g>
        </g>
        <g
   class="com.sun.star.drawing.LineShape"
   id="g156">
         <g
   id="id17">
          <rect
   class="BoundingBox"
   stroke="none"
   fill="none"
   x="9729"
   y="10804"
   width="713"
   height="963"
   id="rect151" />
          <path
   fill="none"
   stroke="#333333"
   stroke-width="212"
   stroke-linejoin="round"
   stroke-linecap="round"
   d="m 9835,10910 500,750"
   id="path153" />
         </g>
        </g>
        <g
   class="com.sun.star.drawing.LineShape"
   id="g163">
         <g
   id="id18">
          <rect
   class="BoundingBox"
   stroke="none"
   fill="none"
   x="8479"
   y="12304"
   width="1713"
   height="213"
   id="rect158" />
          <path
   fill="none"
   stroke="#333333"
   stroke-width="212"
   stroke-linejoin="round"
   stroke-linecap="round"
   d="m 8585,12410 h 1500"
   id="path160" />
         </g>
        </g>
        <g
   class="com.sun.star.drawing.LineShape"
   id="g170">
         <g
   id="id19">
          <rect
   class="BoundingBox"
   stroke="none"
   fill="none"
   x="9979"
   y="12304"
   width="463"
   height="1213"
   id="rect165" />
          <path
   fill="none"
   stroke="#333333"
   stroke-width="212"
   stroke-linejoin="round"
   stroke-linecap="round"
   d="m 10085,12410 250,1000"
   id="path167" />
         </g>
        </g>
        <g
   class="com.sun.star.drawing.LineShape"
   id="g177">
         <g
   id="id20">
          <rect
   class="BoundingBox"
   stroke="none"
   fill="none"
   x="8479"
   y="13304"
   width="1463"
   height="713"
   id="rect172" />
          <path
   fill="none"
   stroke="#333333"
   stroke-width="212"
   stroke-linejoin="round"
   stroke-linecap="round"
   d="m 8585,13410 1250,500"
   id="path174" />
         </g>
        </g>
        <g
   class="com.sun.star.drawing.LineShape"
   id="g184">
         <g
   id="id21">
          <rect
   class="BoundingBox"
   stroke="none"
   fill="none"
   x="9729"
   y="13804"
   width="213"
   height="1213"
   id="rect179" />
          <path
   fill="none"
   stroke="#333333"
   stroke-width="212"
   stroke-linejoin="round"
   stroke-linecap="round"
   d="m 9835,13910 v 1000"
   id="path181" />
         </g>
        </g>
       </g>
      </g>
     </g>
    </g>
   </g>
  </g>
 </g>
</svg>
